<svg width="50" height="50" viewBox="0 0 50 50" fill="none" xmlns="http://www.w3.org/2000/svg">
<circle cx="25" cy="25" r="25" fill="#00C022"/>
<path fill-rule="evenodd" clip-rule="evenodd" d="M12.0234 38.9887C12.5973 36.8726 13.1574 34.9112 13.6433 32.9313C13.7442 32.5206 13.6813 31.9898 13.5029 31.6021C11.1398 26.4675 11.5015 21.5473 15.0287 17.1322C18.554 12.7194 23.3148 11.1022 28.7905 12.4753C34.2677 13.8485 37.6878 17.5326 38.7216 23.0784C39.7036 28.3463 37.954 32.8316 33.7111 36.1138C29.4666 39.3973 24.7506 39.8246 19.8348 37.6737C19.2541 37.4197 18.7498 37.3747 18.1551 37.523C16.172 38.0176 14.1798 38.4765 12.0234 38.9887ZM15.8129 35.3118C16.7214 35.1026 17.4685 34.9814 18.1812 34.7532C19.0316 34.4806 19.7471 34.5766 20.5525 35.0183C22.7123 36.2026 25.0507 36.527 27.4773 36.0852C32.4187 35.1854 36.1755 30.7841 36.2761 25.7979C36.3819 20.575 32.9263 16.1484 27.8324 14.9814C22.9513 13.8632 17.8064 16.4095 15.7328 21.0268C14.1871 24.4691 14.4426 27.846 16.3292 31.0937C16.6336 31.6176 16.7333 32.0792 16.5413 32.6612C16.2716 33.4788 16.0802 34.3224 15.8129 35.3118Z" fill="white"/>
<path fill-rule="evenodd" clip-rule="evenodd" d="M29.0374 32.1652C27.5831 31.6154 26.0468 31.2173 24.6925 30.483C22.1818 29.1217 20.4172 26.9605 19.1592 24.4289C18.395 22.891 18.4451 21.3244 19.6359 19.9487C20.6157 18.817 21.7792 19.0018 22.3548 20.3598C22.5514 20.8239 22.702 21.3153 22.9547 21.7463C23.4358 22.5674 23.2589 23.2539 22.5964 23.8396C22.0486 24.3239 22.1618 24.7493 22.5307 25.2857C23.558 26.7789 24.8652 27.9135 26.5161 28.6736C27.0643 28.9259 27.4137 28.868 27.8137 28.39C28.9685 27.0104 28.9891 27.0274 30.6464 27.8171C30.8485 27.9135 31.0519 28.0081 31.2527 28.1077C32.4893 28.7207 32.6826 29.8705 31.6873 30.8765C30.9907 31.5808 30.1476 31.9907 29.1222 31.9268C29.0939 32.0064 29.0657 32.0857 29.0374 32.1652Z" fill="white"/>
</svg>